<svg width="152" height="30" viewBox="0 0 152 30" fill="none" xmlns="http://www.w3.org/2000/svg">
<path d="M13.7566 2.25584C14.096 1.42845 15.2677 1.42845 15.607 2.25583L18.2963 8.81289C18.44 9.16313 18.7691 9.40223 19.1466 9.43061L26.2137 9.96205C27.1055 10.0291 27.4676 11.1435 26.7855 11.7219L21.3804 16.3058C21.0917 16.5507 20.966 16.9375 21.0557 17.3053L22.7341 24.1908C22.9459 25.0597 21.998 25.7484 21.2371 25.2785L15.2073 21.5544C14.8852 21.3555 14.4784 21.3555 14.1564 21.5544L8.12652 25.2785C7.36566 25.7484 6.41771 25.0597 6.6295 24.1908L8.30795 17.3053C8.3976 16.9375 8.2719 16.5507 7.98319 16.3058L2.5781 11.7219C1.89608 11.1435 2.25816 10.0291 3.14991 9.96205L10.2171 9.43061C10.5946 9.40223 10.9237 9.16313 11.0673 8.81289L13.7566 2.25584Z" fill="#FFC700"/>
<path d="M45.7112 2.25584C46.0505 1.42845 47.2223 1.42845 47.5616 2.25583L50.2509 8.81289C50.3946 9.16313 50.7237 9.40223 51.1011 9.43061L58.1683 9.96205C59.0601 10.0291 59.4221 11.1435 58.7401 11.7219L53.335 16.3058C53.0463 16.5507 52.9206 16.9375 53.0103 17.3053L54.6887 24.1908C54.9005 25.0597 53.9526 25.7484 53.1917 25.2785L47.1619 21.5544C46.8398 21.3555 46.433 21.3555 46.1109 21.5544L40.0811 25.2785C39.3203 25.7484 38.3723 25.0597 38.5841 24.1908L40.2625 17.3053C40.3522 16.9375 40.2265 16.5507 39.9378 16.3058L34.5327 11.7219C33.8507 11.1435 34.2128 10.0291 35.1045 9.96205L42.1717 9.43061C42.5492 9.40223 42.8782 9.16313 43.0219 8.81289L45.7112 2.25584Z" fill="#FFC700"/>
<path d="M75.0747 2.25584C75.4141 1.42845 76.5858 1.42845 76.9251 2.25583L79.6144 8.81289C79.7581 9.16313 80.0872 9.40223 80.4647 9.43061L87.5318 9.96205C88.4236 10.0291 88.7857 11.1435 88.1037 11.7219L82.6986 16.3058C82.4099 16.5507 82.2842 16.9375 82.3738 17.3053L84.0522 24.1908C84.264 25.0597 83.3161 25.7484 82.5552 25.2785L76.5254 21.5544C76.2033 21.3555 75.7965 21.3555 75.4745 21.5544L69.4446 25.2785C68.6838 25.7484 67.7358 25.0597 67.9476 24.1908L69.6261 17.3053C69.7157 16.9375 69.59 16.5507 69.3013 16.3058L63.8962 11.7219C63.2142 11.1435 63.5763 10.0291 64.468 9.96205L71.5352 9.43061C71.9127 9.40223 72.2418 9.16313 72.3854 8.81289L75.0747 2.25584Z" fill="#FFC700"/>
<path d="M104.438 2.25584C104.778 1.42845 105.95 1.42845 106.289 2.25583L108.978 8.81289C109.122 9.16313 109.451 9.40223 109.828 9.43061L116.896 9.96205C117.787 10.0291 118.149 11.1435 117.467 11.7219L112.062 16.3058C111.774 16.5507 111.648 16.9375 111.738 17.3053L113.416 24.1908C113.628 25.0597 112.68 25.7484 111.919 25.2785L105.889 21.5544C105.567 21.3555 105.16 21.3555 104.838 21.5544L98.8084 25.2785C98.0475 25.7484 97.0996 25.0597 97.3114 24.1908L98.9898 17.3053C99.0795 16.9375 98.9538 16.5507 98.6651 16.3058L93.26 11.7219C92.578 11.1435 92.94 10.0291 93.8318 9.96205L100.899 9.43061C101.276 9.40223 101.606 9.16313 101.749 8.81289L104.438 2.25584Z" fill="#FFC700"/>
<path d="M136.393 2.25584C136.732 1.42845 137.904 1.42845 138.243 2.25583L140.933 8.81289C141.076 9.16313 141.406 9.40223 141.783 9.43061L148.85 9.96205C149.742 10.0291 150.104 11.1435 149.422 11.7219L144.017 16.3058C143.728 16.5507 143.603 16.9375 143.692 17.3053L145.371 24.1908C145.582 25.0597 144.634 25.7484 143.874 25.2785L137.844 21.5544C137.522 21.3555 137.115 21.3555 136.793 21.5544L130.763 25.2785C130.002 25.7484 129.054 25.0597 129.266 24.1908L130.944 17.3053C131.034 16.9375 130.908 16.5507 130.62 16.3058L125.215 11.7219C124.533 11.1435 124.895 10.0291 125.786 9.96205L132.854 9.43061C133.231 9.40223 133.56 9.16313 133.704 8.81289L136.393 2.25584Z" fill="#FFC700"/>
</svg>
